<?xml version="1.0" encoding="UTF-8" standalone="no"?>
<svg width="528px" height="98px" viewBox="0 0 528 98" version="1.1" xmlns="http://www.w3.org/2000/svg" xmlns:xlink="http://www.w3.org/1999/xlink" xmlns:sketch="http://www.bohemiancoding.com/sketch/ns">
    <!-- Generator: Sketch 3.3.3 (12072) - http://www.bohemiancoding.com/sketch -->
    <title>Chase_logo_2007 (1) Copy</title>
    <desc>Created with Sketch.</desc>
    <defs></defs>
    <g id="Page-1" stroke="none" stroke-width="1" fill="none" fill-rule="evenodd" sketch:type="MSPage">
        <g id="Chase_logo_2007-(1)-Copy" sketch:type="MSLayerGroup">
            <g id="logo" transform="translate(428.620524, 0.158090)" fill="#0F5BA7" sketch:type="MSShapeGroup">
                <path d="M35.8668274,0.542614094 C33.9567372,0.542614094 32.4095375,2.07809506 32.4095375,3.97145866 L32.4095375,28.0197643 L96.4198028,28.0197643 L67.2697785,0.544837538 L35.8668274,0.542614094" id="logo-ne"></path>
                <path d="M98.7617781,35.2950014 C98.7617781,33.3971892 97.2256916,31.8683485 95.3044882,31.8683485 L71.0788278,31.8683485 L71.0788278,95.3946879 L98.7506293,66.4528216 L98.7617781,35.2950014" id="logo-se"></path>
                <path d="M63.7390236,97.6945741 C65.6446613,97.6945741 67.1918611,96.156898 67.1918611,94.2591229 L67.1918611,70.2196898 L3.17935178,70.2196898 L32.3338106,97.6901555 L63.7390236,97.6945741" id="logo-sw"></path>
                <path d="M0.839620432,62.9466408 C0.839620432,64.8422296 2.38682019,66.3865442 4.30136279,66.3865442 L28.5225529,66.3865442 L28.5225529,2.85578272 L0.844072857,31.7888224 L0.839620432,62.9466408" id="logo-nw"></path>
            </g>
            <g id="type" transform="translate(0.406786, 11.762753)" fill="#050607" sketch:type="MSShapeGroup">
                <path d="M135.654156,0.53460962 L135.654156,29.8719503 L94.4692279,29.8719503 L94.4692279,0.53460962 L79.4689914,0.521362628 L79.4689914,74.493288 L94.4692279,74.493288 L94.4692279,42.7146479 L135.654156,42.7146479 L135.654156,74.493288 L150.678845,74.493288 L150.678845,0.53460962 L135.654156,0.53460962" id="H"></path>
                <path d="M335.205133,0.53460962 L335.205133,74.4756312 L401.014213,74.4756312 L392.679256,61.4584074 L350.247667,61.4584074 L350.247667,42.7146479 L391.334624,42.7146479 L391.334624,30.1768343 L350.247667,30.1768343 L350.247667,13.2469441 L392.608035,13.2469441 L400.773765,0.53460962 L335.205133,0.53460962" id="E"></path>
                <path d="M23.7112596,0.516910437 C8.10777302,0.516910437 0.226963568,9.93076169 0.226963568,23.6284779 L0.226963568,51.2403727 C0.226963568,67.0920993 10.3829264,74.493288 23.6333778,74.493288 L70.6955065,74.4888694 L61.9709625,60.9679417 L26.5408111,60.9679417 C19.0139516,60.9679417 15.7347587,58.2681713 15.7347587,49.9081354 L15.7347587,24.8568514 C15.7347587,16.7752038 18.4952798,13.6225224 26.7411524,13.6225224 L62.3405138,13.6225224 L70.7177508,0.516910437 L23.7112596,0.516910437" id="C"></path>
                <path d="M269.380504,0.499246603 C260.368779,0.499246603 251.132224,5.87448163 251.132224,19.700334 L251.132224,23.2528678 C251.132224,37.6663776 260.019282,43.1653319 268.910774,43.2029219 L300.120044,43.2029219 C303.361392,43.2029219 305.995001,43.7375489 305.995001,49.1746462 L305.990548,55.4557033 C305.908179,60.3404726 303.452666,61.4584074 300.008716,61.4584074 L258.950664,61.4584074 L250.540034,74.4756312 L300.97491,74.4756312 C313.136708,74.4756312 321.393729,68.4707231 321.393729,54.6007165 L321.393729,49.5038362 C321.393729,36.0933738 313.722202,29.7570611 301.827549,29.7570611 L272.027453,29.7570611 C268.723736,29.7570611 266.42185,28.8622944 266.42185,24.0062478 L266.42185,18.8917019 C266.42185,14.7558975 268.000235,13.2469441 271.849356,13.2469441 L310.950549,13.2314701 L319.122975,0.481581002 L269.380504,0.499246603" id="S"></path>
                <path d="M194.259196,0.53460962 L158.918075,74.4888694 L175.62131,74.4888694 L182.504794,59.2159312 L220.909166,59.2159312 L227.770352,74.4888694 L244.547106,74.4888694 L209.123615,0.53460962 L194.259196,0.53460962 L194.259196,0.53460962 Z M201.670239,15.8892708 L215.250152,46.6273178 L188.177148,46.6273178 L201.670239,15.8892708 L201.670239,15.8892708 Z" id="A"></path>
            </g>
        </g>
    </g>
</svg>